<mxfile host="app.diagrams.net" modified="2022-07-23T00:02:30.920Z" agent="5.0 (Macintosh; Intel Mac OS X 10_15_7) AppleWebKit/537.36 (KHTML, like Gecko) Chrome/103.0.0.0 Safari/537.36" etag="EUkETrD_hPQkfsDS2R8C" version="20.1.3" type="github">
  <diagram id="ddb-kprN005Wt0hA2Xbe" name="DR Architecture">
    <mxGraphModel dx="1666" dy="771" grid="1" gridSize="10" guides="1" tooltips="1" connect="1" arrows="1" fold="1" page="1" pageScale="1" pageWidth="827" pageHeight="1169" math="0" shadow="0">
      <root>
        <mxCell id="0" />
        <mxCell id="1" parent="0" />
        <mxCell id="-xat-Ccg4I1JxFuP80GP-122" value="Region" style="points=[[0,0],[0.25,0],[0.5,0],[0.75,0],[1,0],[1,0.25],[1,0.5],[1,0.75],[1,1],[0.75,1],[0.5,1],[0.25,1],[0,1],[0,0.75],[0,0.5],[0,0.25]];outlineConnect=0;gradientColor=none;html=1;whiteSpace=wrap;fontSize=12;fontStyle=0;container=1;pointerEvents=0;collapsible=0;recursiveResize=0;shape=mxgraph.aws4.group;grIcon=mxgraph.aws4.group_region;strokeColor=#147EBA;fillColor=none;verticalAlign=top;align=left;spacingLeft=30;fontColor=#147EBA;dashed=1;" parent="1" vertex="1">
          <mxGeometry x="10" y="30" width="790" height="740" as="geometry" />
        </mxCell>
        <mxCell id="-xat-Ccg4I1JxFuP80GP-131" style="edgeStyle=orthogonalEdgeStyle;rounded=0;orthogonalLoop=1;jettySize=auto;html=1;fontSize=10;" parent="-xat-Ccg4I1JxFuP80GP-122" source="-xat-Ccg4I1JxFuP80GP-31" target="-xat-Ccg4I1JxFuP80GP-127" edge="1">
          <mxGeometry relative="1" as="geometry">
            <Array as="points">
              <mxPoint x="403" y="140" />
            </Array>
          </mxGeometry>
        </mxCell>
        <mxCell id="styciKq3TnAX_ls_hh07-5" style="edgeStyle=orthogonalEdgeStyle;rounded=0;orthogonalLoop=1;jettySize=auto;html=1;" edge="1" parent="-xat-Ccg4I1JxFuP80GP-122" source="-xat-Ccg4I1JxFuP80GP-31" target="styciKq3TnAX_ls_hh07-4">
          <mxGeometry relative="1" as="geometry">
            <Array as="points">
              <mxPoint x="440" y="140" />
              <mxPoint x="440" y="140" />
            </Array>
          </mxGeometry>
        </mxCell>
        <mxCell id="-xat-Ccg4I1JxFuP80GP-31" value="Amazon Route 53" style="sketch=0;outlineConnect=0;fontColor=#232F3E;gradientColor=none;strokeColor=#ffffff;fillColor=#232F3E;dashed=0;verticalLabelPosition=middle;verticalAlign=bottom;align=center;html=1;whiteSpace=wrap;fontSize=10;fontStyle=1;spacing=3;shape=mxgraph.aws4.productIcon;prIcon=mxgraph.aws4.route_53;" parent="-xat-Ccg4I1JxFuP80GP-122" vertex="1">
          <mxGeometry x="293" y="97" width="60" height="90" as="geometry" />
        </mxCell>
        <mxCell id="-xat-Ccg4I1JxFuP80GP-130" style="edgeStyle=orthogonalEdgeStyle;rounded=0;orthogonalLoop=1;jettySize=auto;html=1;fontSize=10;" parent="-xat-Ccg4I1JxFuP80GP-122" source="-xat-Ccg4I1JxFuP80GP-40" target="-xat-Ccg4I1JxFuP80GP-31" edge="1">
          <mxGeometry relative="1" as="geometry" />
        </mxCell>
        <mxCell id="-xat-Ccg4I1JxFuP80GP-40" value="" style="sketch=0;outlineConnect=0;fontColor=#232F3E;gradientColor=none;fillColor=#232F3D;strokeColor=none;dashed=0;verticalLabelPosition=bottom;verticalAlign=top;align=center;html=1;fontSize=12;fontStyle=0;aspect=fixed;pointerEvents=1;shape=mxgraph.aws4.user;" parent="-xat-Ccg4I1JxFuP80GP-122" vertex="1">
          <mxGeometry x="200" y="117" width="50" height="50" as="geometry" />
        </mxCell>
        <mxCell id="-xat-Ccg4I1JxFuP80GP-1" value="VPC" style="points=[[0,0],[0.25,0],[0.5,0],[0.75,0],[1,0],[1,0.25],[1,0.5],[1,0.75],[1,1],[0.75,1],[0.5,1],[0.25,1],[0,1],[0,0.75],[0,0.5],[0,0.25]];outlineConnect=0;gradientColor=none;html=1;whiteSpace=wrap;fontSize=12;fontStyle=0;container=1;pointerEvents=0;collapsible=0;recursiveResize=0;shape=mxgraph.aws4.group;grIcon=mxgraph.aws4.group_vpc;strokeColor=#248814;fillColor=none;verticalAlign=top;align=left;spacingLeft=30;fontColor=#AAB7B8;dashed=0;" parent="-xat-Ccg4I1JxFuP80GP-122" vertex="1">
          <mxGeometry x="30" y="216.5" width="720" height="383.5" as="geometry" />
        </mxCell>
        <mxCell id="-xat-Ccg4I1JxFuP80GP-83" value="Private subnet (Front)" style="points=[[0,0],[0.25,0],[0.5,0],[0.75,0],[1,0],[1,0.25],[1,0.5],[1,0.75],[1,1],[0.75,1],[0.5,1],[0.25,1],[0,1],[0,0.75],[0,0.5],[0,0.25]];outlineConnect=0;gradientColor=none;html=1;whiteSpace=wrap;fontSize=12;fontStyle=0;container=1;pointerEvents=0;collapsible=0;recursiveResize=0;shape=mxgraph.aws4.group;grIcon=mxgraph.aws4.group_security_group;grStroke=0;strokeColor=#147EBA;fillColor=#E6F2F8;verticalAlign=top;align=left;spacingLeft=30;fontColor=#147EBA;dashed=0;" parent="-xat-Ccg4I1JxFuP80GP-1" vertex="1">
          <mxGeometry x="66" y="167.5" width="620" height="170.5" as="geometry" />
        </mxCell>
        <mxCell id="styciKq3TnAX_ls_hh07-18" value="" style="sketch=0;points=[[0,0,0],[0.25,0,0],[0.5,0,0],[0.75,0,0],[1,0,0],[0,1,0],[0.25,1,0],[0.5,1,0],[0.75,1,0],[1,1,0],[0,0.25,0],[0,0.5,0],[0,0.75,0],[1,0.25,0],[1,0.5,0],[1,0.75,0]];outlineConnect=0;fontColor=#232F3E;gradientColor=#F78E04;gradientDirection=north;fillColor=#D05C17;strokeColor=#ffffff;dashed=0;verticalLabelPosition=bottom;verticalAlign=top;align=center;html=1;fontSize=12;fontStyle=0;aspect=fixed;shape=mxgraph.aws4.resourceIcon;resIcon=mxgraph.aws4.fargate;" vertex="1" parent="-xat-Ccg4I1JxFuP80GP-83">
          <mxGeometry x="36" y="31" width="40" height="40" as="geometry" />
        </mxCell>
        <mxCell id="styciKq3TnAX_ls_hh07-19" value="Fargate" style="text;html=1;align=center;verticalAlign=middle;resizable=0;points=[];autosize=1;strokeColor=none;fillColor=none;fontSize=10;" vertex="1" parent="-xat-Ccg4I1JxFuP80GP-83">
          <mxGeometry x="70" y="31" width="60" height="30" as="geometry" />
        </mxCell>
        <mxCell id="styciKq3TnAX_ls_hh07-17" value="" style="rounded=0;whiteSpace=wrap;html=1;fillColor=none;strokeColor=#FFB570;strokeWidth=2;" vertex="1" parent="-xat-Ccg4I1JxFuP80GP-83">
          <mxGeometry x="35" y="31" width="565" height="125.5" as="geometry" />
        </mxCell>
        <mxCell id="styciKq3TnAX_ls_hh07-22" value="" style="sketch=0;outlineConnect=0;fontColor=#232F3E;gradientColor=none;fillColor=#D45B07;strokeColor=none;dashed=0;verticalLabelPosition=bottom;verticalAlign=top;align=center;html=1;fontSize=12;fontStyle=0;aspect=fixed;pointerEvents=1;shape=mxgraph.aws4.container_1;" vertex="1" parent="-xat-Ccg4I1JxFuP80GP-83">
          <mxGeometry x="144" y="61" width="48" height="31" as="geometry" />
        </mxCell>
        <mxCell id="styciKq3TnAX_ls_hh07-23" value="" style="sketch=0;outlineConnect=0;fontColor=#232F3E;gradientColor=none;fillColor=#D45B07;strokeColor=none;dashed=0;verticalLabelPosition=bottom;verticalAlign=top;align=center;html=1;fontSize=12;fontStyle=0;aspect=fixed;pointerEvents=1;shape=mxgraph.aws4.container_1;" vertex="1" parent="-xat-Ccg4I1JxFuP80GP-83">
          <mxGeometry x="204" y="106" width="48" height="31" as="geometry" />
        </mxCell>
        <mxCell id="styciKq3TnAX_ls_hh07-24" value="" style="sketch=0;outlineConnect=0;fontColor=#232F3E;gradientColor=none;fillColor=#D45B07;strokeColor=none;dashed=0;verticalLabelPosition=bottom;verticalAlign=top;align=center;html=1;fontSize=12;fontStyle=0;aspect=fixed;pointerEvents=1;shape=mxgraph.aws4.container_1;" vertex="1" parent="-xat-Ccg4I1JxFuP80GP-83">
          <mxGeometry x="394" y="61" width="48" height="31" as="geometry" />
        </mxCell>
        <mxCell id="styciKq3TnAX_ls_hh07-25" value="" style="sketch=0;outlineConnect=0;fontColor=#232F3E;gradientColor=none;fillColor=#D45B07;strokeColor=none;dashed=0;verticalLabelPosition=bottom;verticalAlign=top;align=center;html=1;fontSize=12;fontStyle=0;aspect=fixed;pointerEvents=1;shape=mxgraph.aws4.container_1;" vertex="1" parent="-xat-Ccg4I1JxFuP80GP-83">
          <mxGeometry x="464" y="106" width="48" height="31" as="geometry" />
        </mxCell>
        <mxCell id="-xat-Ccg4I1JxFuP80GP-147" value="Internet Gateway" style="text;html=1;align=center;verticalAlign=middle;resizable=0;points=[];autosize=1;strokeColor=none;fillColor=none;fontSize=10;" parent="-xat-Ccg4I1JxFuP80GP-1" vertex="1">
          <mxGeometry x="326" y="13.5" width="100" height="30" as="geometry" />
        </mxCell>
        <mxCell id="-xat-Ccg4I1JxFuP80GP-148" value="ELB" style="text;html=1;align=center;verticalAlign=middle;resizable=0;points=[];autosize=1;strokeColor=none;fillColor=none;fontSize=10;" parent="-xat-Ccg4I1JxFuP80GP-1" vertex="1">
          <mxGeometry x="350" y="111.32" width="40" height="30" as="geometry" />
        </mxCell>
        <mxCell id="styciKq3TnAX_ls_hh07-20" style="edgeStyle=orthogonalEdgeStyle;rounded=0;orthogonalLoop=1;jettySize=auto;html=1;entryX=0.25;entryY=0;entryDx=0;entryDy=0;" edge="1" parent="-xat-Ccg4I1JxFuP80GP-1" source="styciKq3TnAX_ls_hh07-1" target="styciKq3TnAX_ls_hh07-17">
          <mxGeometry relative="1" as="geometry" />
        </mxCell>
        <mxCell id="styciKq3TnAX_ls_hh07-21" style="edgeStyle=orthogonalEdgeStyle;rounded=0;orthogonalLoop=1;jettySize=auto;html=1;entryX=0.75;entryY=0;entryDx=0;entryDy=0;" edge="1" parent="-xat-Ccg4I1JxFuP80GP-1" source="styciKq3TnAX_ls_hh07-1" target="styciKq3TnAX_ls_hh07-17">
          <mxGeometry relative="1" as="geometry" />
        </mxCell>
        <mxCell id="styciKq3TnAX_ls_hh07-1" value="" style="sketch=0;points=[[0,0,0],[0.25,0,0],[0.5,0,0],[0.75,0,0],[1,0,0],[0,1,0],[0.25,1,0],[0.5,1,0],[0.75,1,0],[1,1,0],[0,0.25,0],[0,0.5,0],[0,0.75,0],[1,0.25,0],[1,0.5,0],[1,0.75,0]];outlineConnect=0;fontColor=#232F3E;gradientColor=#945DF2;gradientDirection=north;fillColor=#5A30B5;strokeColor=#ffffff;dashed=0;verticalLabelPosition=bottom;verticalAlign=top;align=center;html=1;fontSize=12;fontStyle=0;aspect=fixed;shape=mxgraph.aws4.resourceIcon;resIcon=mxgraph.aws4.elastic_load_balancing;" vertex="1" parent="-xat-Ccg4I1JxFuP80GP-1">
          <mxGeometry x="347.18" y="63.5" width="47.82" height="47.82" as="geometry" />
        </mxCell>
        <mxCell id="styciKq3TnAX_ls_hh07-26" value="Availability Zone" style="fillColor=none;strokeColor=#147EBA;dashed=1;verticalAlign=top;fontStyle=0;fontColor=#147EBA;fontSize=10;" vertex="1" parent="-xat-Ccg4I1JxFuP80GP-1">
          <mxGeometry x="200" y="130" width="147.18" height="230" as="geometry" />
        </mxCell>
        <mxCell id="styciKq3TnAX_ls_hh07-27" value="Availability Zone" style="fillColor=none;strokeColor=#147EBA;dashed=1;verticalAlign=top;fontStyle=0;fontColor=#147EBA;fontSize=10;" vertex="1" parent="-xat-Ccg4I1JxFuP80GP-1">
          <mxGeometry x="440" y="123.5" width="147.18" height="230" as="geometry" />
        </mxCell>
        <mxCell id="-xat-Ccg4I1JxFuP80GP-150" style="edgeStyle=orthogonalEdgeStyle;rounded=0;orthogonalLoop=1;jettySize=auto;html=1;fontSize=10;" parent="-xat-Ccg4I1JxFuP80GP-122" edge="1">
          <mxGeometry relative="1" as="geometry">
            <mxPoint x="402.5581395348838" y="241.49941357321796" as="sourcePoint" />
            <mxPoint x="403.0000000000001" y="283" as="targetPoint" />
            <Array as="points">
              <mxPoint x="403" y="262" />
              <mxPoint x="403" y="262" />
            </Array>
          </mxGeometry>
        </mxCell>
        <mxCell id="-xat-Ccg4I1JxFuP80GP-127" value="" style="sketch=0;outlineConnect=0;fontColor=#232F3E;gradientColor=none;fillColor=#4D27AA;strokeColor=none;dashed=0;verticalLabelPosition=bottom;verticalAlign=top;align=center;html=1;fontSize=12;fontStyle=0;aspect=fixed;pointerEvents=1;shape=mxgraph.aws4.internet_gateway;" parent="-xat-Ccg4I1JxFuP80GP-122" vertex="1">
          <mxGeometry x="376.75" y="190" width="51.5" height="51.5" as="geometry" />
        </mxCell>
        <mxCell id="styciKq3TnAX_ls_hh07-2" value="" style="sketch=0;points=[[0,0,0],[0.25,0,0],[0.5,0,0],[0.75,0,0],[1,0,0],[0,1,0],[0.25,1,0],[0.5,1,0],[0.75,1,0],[1,1,0],[0,0.25,0],[0,0.5,0],[0,0.75,0],[1,0.25,0],[1,0.5,0],[1,0.75,0]];outlineConnect=0;fontColor=#232F3E;gradientColor=#F54749;gradientDirection=north;fillColor=#C7131F;strokeColor=#ffffff;dashed=0;verticalLabelPosition=bottom;verticalAlign=top;align=center;html=1;fontSize=12;fontStyle=0;aspect=fixed;shape=mxgraph.aws4.resourceIcon;resIcon=mxgraph.aws4.guardduty;" vertex="1" parent="-xat-Ccg4I1JxFuP80GP-122">
          <mxGeometry x="720" y="20" width="50" height="50" as="geometry" />
        </mxCell>
        <mxCell id="styciKq3TnAX_ls_hh07-3" value="GuardDuty" style="text;html=1;align=center;verticalAlign=middle;resizable=0;points=[];autosize=1;strokeColor=none;fillColor=none;fontSize=11;" vertex="1" parent="-xat-Ccg4I1JxFuP80GP-122">
          <mxGeometry x="705" y="70" width="80" height="30" as="geometry" />
        </mxCell>
        <mxCell id="styciKq3TnAX_ls_hh07-31" style="edgeStyle=orthogonalEdgeStyle;rounded=0;orthogonalLoop=1;jettySize=auto;html=1;" edge="1" parent="-xat-Ccg4I1JxFuP80GP-122" source="styciKq3TnAX_ls_hh07-4" target="-xat-Ccg4I1JxFuP80GP-137">
          <mxGeometry relative="1" as="geometry" />
        </mxCell>
        <mxCell id="styciKq3TnAX_ls_hh07-4" value="Amazon Cloudfront" style="sketch=0;outlineConnect=0;fontColor=#232F3E;gradientColor=none;strokeColor=#ffffff;fillColor=#232F3E;dashed=0;verticalLabelPosition=middle;verticalAlign=bottom;align=center;html=1;whiteSpace=wrap;fontSize=10;fontStyle=1;spacing=3;shape=mxgraph.aws4.productIcon;prIcon=mxgraph.aws4.cloudfront;" vertex="1" parent="-xat-Ccg4I1JxFuP80GP-122">
          <mxGeometry x="510" y="95" width="60" height="90" as="geometry" />
        </mxCell>
        <mxCell id="styciKq3TnAX_ls_hh07-29" style="edgeStyle=orthogonalEdgeStyle;rounded=0;orthogonalLoop=1;jettySize=auto;html=1;entryX=0.016;entryY=1.004;entryDx=0;entryDy=0;entryPerimeter=0;" edge="1" parent="-xat-Ccg4I1JxFuP80GP-122" source="styciKq3TnAX_ls_hh07-8" target="styciKq3TnAX_ls_hh07-17">
          <mxGeometry relative="1" as="geometry" />
        </mxCell>
        <mxCell id="styciKq3TnAX_ls_hh07-8" value="" style="sketch=0;points=[[0,0,0],[0.25,0,0],[0.5,0,0],[0.75,0,0],[1,0,0],[0,1,0],[0.25,1,0],[0.5,1,0],[0.75,1,0],[1,1,0],[0,0.25,0],[0,0.5,0],[0,0.75,0],[1,0.25,0],[1,0.5,0],[1,0.75,0]];points=[[0,0,0],[0.25,0,0],[0.5,0,0],[0.75,0,0],[1,0,0],[0,1,0],[0.25,1,0],[0.5,1,0],[0.75,1,0],[1,1,0],[0,0.25,0],[0,0.5,0],[0,0.75,0],[1,0.25,0],[1,0.5,0],[1,0.75,0]];outlineConnect=0;fontColor=#232F3E;gradientColor=#F34482;gradientDirection=north;fillColor=#BC1356;strokeColor=#ffffff;dashed=0;verticalLabelPosition=bottom;verticalAlign=top;align=center;html=1;fontSize=12;fontStyle=0;aspect=fixed;shape=mxgraph.aws4.resourceIcon;resIcon=mxgraph.aws4.management_console;" vertex="1" parent="-xat-Ccg4I1JxFuP80GP-122">
          <mxGeometry x="115" y="620" width="50" height="50" as="geometry" />
        </mxCell>
        <mxCell id="styciKq3TnAX_ls_hh07-28" style="edgeStyle=orthogonalEdgeStyle;rounded=0;orthogonalLoop=1;jettySize=auto;html=1;" edge="1" parent="-xat-Ccg4I1JxFuP80GP-122" source="styciKq3TnAX_ls_hh07-9" target="styciKq3TnAX_ls_hh07-8">
          <mxGeometry relative="1" as="geometry" />
        </mxCell>
        <mxCell id="styciKq3TnAX_ls_hh07-9" value="" style="sketch=0;outlineConnect=0;fontColor=#232F3E;gradientColor=none;fillColor=#232F3D;strokeColor=none;dashed=0;verticalLabelPosition=bottom;verticalAlign=top;align=center;html=1;fontSize=12;fontStyle=0;aspect=fixed;pointerEvents=1;shape=mxgraph.aws4.user;" vertex="1" parent="-xat-Ccg4I1JxFuP80GP-122">
          <mxGeometry x="270" y="624.5" width="41" height="41" as="geometry" />
        </mxCell>
        <mxCell id="styciKq3TnAX_ls_hh07-11" value="Admin" style="text;html=1;align=center;verticalAlign=middle;resizable=0;points=[];autosize=1;strokeColor=none;fillColor=none;" vertex="1" parent="-xat-Ccg4I1JxFuP80GP-122">
          <mxGeometry x="260.5" y="665.5" width="60" height="30" as="geometry" />
        </mxCell>
        <mxCell id="-xat-Ccg4I1JxFuP80GP-137" value="" style="sketch=0;points=[[0,0,0],[0.25,0,0],[0.5,0,0],[0.75,0,0],[1,0,0],[0,1,0],[0.25,1,0],[0.5,1,0],[0.75,1,0],[1,1,0],[0,0.25,0],[0,0.5,0],[0,0.75,0],[1,0.25,0],[1,0.5,0],[1,0.75,0]];outlineConnect=0;fontColor=#232F3E;gradientColor=#60A337;gradientDirection=north;fillColor=#277116;strokeColor=#ffffff;dashed=0;verticalLabelPosition=bottom;verticalAlign=top;align=center;html=1;fontSize=12;fontStyle=0;aspect=fixed;shape=mxgraph.aws4.resourceIcon;resIcon=mxgraph.aws4.s3;" parent="-xat-Ccg4I1JxFuP80GP-122" vertex="1">
          <mxGeometry x="620.32" y="94" width="56" height="56" as="geometry" />
        </mxCell>
        <mxCell id="styciKq3TnAX_ls_hh07-15" value="GuardDuty" style="text;html=1;align=center;verticalAlign=middle;resizable=0;points=[];autosize=1;strokeColor=none;fillColor=none;fontSize=11;" vertex="1" parent="-xat-Ccg4I1JxFuP80GP-122">
          <mxGeometry x="1910" y="320" width="80" height="30" as="geometry" />
        </mxCell>
        <mxCell id="styciKq3TnAX_ls_hh07-30" value="AWS Management&lt;br&gt;Console" style="text;html=1;align=center;verticalAlign=middle;resizable=0;points=[];autosize=1;strokeColor=none;fillColor=none;" vertex="1" parent="-xat-Ccg4I1JxFuP80GP-122">
          <mxGeometry x="80" y="670" width="120" height="40" as="geometry" />
        </mxCell>
        <mxCell id="styciKq3TnAX_ls_hh07-16" value="S3" style="text;html=1;align=center;verticalAlign=middle;resizable=0;points=[];autosize=1;strokeColor=none;fillColor=none;" vertex="1" parent="-xat-Ccg4I1JxFuP80GP-122">
          <mxGeometry x="628.32" y="160" width="40" height="30" as="geometry" />
        </mxCell>
        <mxCell id="styciKq3TnAX_ls_hh07-10" value="User" style="text;html=1;align=center;verticalAlign=middle;resizable=0;points=[];autosize=1;strokeColor=none;fillColor=none;" vertex="1" parent="1">
          <mxGeometry x="211" y="195" width="50" height="30" as="geometry" />
        </mxCell>
      </root>
    </mxGraphModel>
  </diagram>
</mxfile>
